<?xml version="1.0" encoding="UTF-8" standalone="no"?>
<!-- Created with Inkscape (http://www.inkscape.org/) -->

<svg
   width="211.0369mm"
   height="210.28749mm"
   viewBox="0 0 211.0369 210.28749"
   version="1.1"
   id="svg5"
   inkscape:version="1.1.1 (3bf5ae0d25, 2021-09-20)"
   sodipodi:docname="logo.svg"
   inkscape:export-filename="C:\Users\Public\Documents\Site_Internet\img\logo.png"
   inkscape:export-xdpi="96"
   inkscape:export-ydpi="96"
   xmlns:inkscape="http://www.inkscape.org/namespaces/inkscape"
   xmlns:sodipodi="http://sodipodi.sourceforge.net/DTD/sodipodi-0.dtd"
   xmlns="http://www.w3.org/2000/svg"
   xmlns:svg="http://www.w3.org/2000/svg">
  <sodipodi:namedview
     id="namedview7"
     pagecolor="#ffffff"
     bordercolor="#666666"
     borderopacity="1.0"
     inkscape:pageshadow="2"
     inkscape:pageopacity="0.0"
     inkscape:pagecheckerboard="0"
     inkscape:document-units="mm"
     showgrid="false"
     inkscape:zoom="2.096401"
     inkscape:cx="-201.29737"
     inkscape:cy="623.68793"
     inkscape:window-width="1920"
     inkscape:window-height="1017"
     inkscape:window-x="-8"
     inkscape:window-y="-8"
     inkscape:window-maximized="1"
     inkscape:current-layer="layer1" />
  <defs
     id="defs2" />
  <g
     inkscape:label="Calque 1"
     inkscape:groupmode="layer"
     id="layer1"
     transform="translate(0,-23.560096)">
    <path
       id="path67"
       style="fill:#000000;stroke:#f50000;stroke-width:11.6714;stroke-miterlimit:4;stroke-dasharray:none;stroke-opacity:1"
       transform="matrix(0.26458333,0,0,0.26458333,0,23.560096)"
       d="M 400.22656,5.8359375 A 391.55798,391.55798 0 0 0 8.6679688,397.39453 391.55798,391.55798 0 0 0 400.22656,788.95117 391.55798,391.55798 0 0 0 791.7832,397.39453 391.55798,391.55798 0 0 0 400.22656,5.8359375 Z" />
    <path
       style="fill:#00b6ff;fill-opacity:1;stroke-width:0.393199"
       id="path1788"
       d="m 109.66724,130.19253 c 5.52974,-5.36119 10.28362,-11.49722 14.54637,-17.88929 1.27781,-1.91583 2.46227,-3.89172 3.69308,-5.83773 5.12193,-8.62551 9.68965,-17.603646 12.94243,-27.102356 1.94272,-5.673744 2.07304,-6.83218 3.3853,-12.458511 0.52563,-3.064428 1.12828,-5.511979 1.06372,-8.587586 -0.0333,-1.612471 -0.50964,-3.976362 -1.57976,-3.521897 -12.85826,5.460615 -11.09007,3.861222 -15.76844,10.211592 -6.34906,9.666812 -11.74858,19.933015 -16.46588,30.476358 -1.31306,2.93445 -2.53517,5.90808 -3.80304,8.86205 -8.075404,19.53137 -15.468904,39.3335 -22.748384,59.16899 -2.84373,7.61993 -5.95323,15.34205 -6.47816,23.55309 -0.49557,7.75162 1.42444,1.29823 -1.40913,8.48853 0,0 0.48682,-0.22444 0.48682,-0.22444 v 0 c 3.02901,-7.68849 -0.0926,-0.59303 5.9609,-10.59805 4.93841,-8.16248 8.72591,-16.90663 11.66698,-25.96383 7.158274,-19.86908 14.277804,-39.77769 22.815434,-59.11413 6.29329,-13.711023 12.6321,-27.627666 21.89704,-39.660803 0.87309,-0.86848 3.79532,-2.979124 2.61909,-2.605449 -3.60327,1.144541 -6.82785,3.243972 -10.17048,5.004166 -0.32801,0.172753 0.80416,-0.457553 1.09057,-0.22284 0.50545,0.414252 0.6647,1.145177 0.80977,1.780329 0.62843,2.751599 0.21632,4.928782 0.018,7.763664 -0.34199,1.871185 -0.58894,3.762004 -1.02606,5.613519 -2.80619,11.890533 -8.43626,22.919594 -14.79681,33.280504 -1.31967,1.96653 -2.59935,3.95995 -3.95875,5.89982 -4.37871,6.24603 -9.27449,12.10358 -14.484164,17.67685 0,0 9.692194,-3.99255 9.692194,-3.99255 z" />
    <path
       style="fill:#0076b4;fill-opacity:1;stroke:none;stroke-width:2.92031;stroke-miterlimit:4;stroke-dasharray:none;stroke-opacity:1"
       id="path5975"
       d="m 89.172076,134.98445 c -2.27439,3.68271 -4.09443,7.6198 -6.06953,11.46458 -1.61237,3.27841 -3.32581,6.52043 -4.77839,9.87466 -0.33855,0.78157 -0.62194,1.58597 -0.9329,2.37903 -0.36557,0.80909 -0.73112,1.61819 -1.09666,2.42717 -1.79731,4.35881 -3.42654,8.78173 -5.16063,13.16518 -1.12103,3.16674 -2.67256,6.13952 -4.20018,9.12178 -0.51483,0.64737 -0.78619,1.07884 -1.43855,1.57806 -0.22295,0.17104 -0.96647,0.57289 -0.72415,0.43086 20.38556,-11.95057 13.33784,-6.4941 9.14833,-5.78149 -2.28828,-0.1164 -4.13206,-1.57521 -5.8095,-2.98663 -2.51776,-2.23974 -3.35388,-4.9905 -3.82068,-8.20395 -0.35804,-3.61607 1.28625,-6.76774 3.09409,-9.77096 0.97364,-1.31035 2.03319,-2.61743 3.38028,-3.57445 0.3856,-0.27377 1.6316,-0.95903 1.22384,-0.71895 -9.72037,5.72261 -12.70761,6.86461 -8.13813,5.01241 1.87885,-0.7109 3.48776,-0.59747 5.32676,0.0683 4.99041,1.94318 -0.90477,2.38411 12.53099,-6.42967 0.20676,-0.1356 -0.14821,-0.47053 -0.23715,-0.70055 -0.10677,-0.27709 -0.23382,-0.54654 -0.35081,-0.81973 -1.21296,-3.48053 -2.55873,-6.91175 -3.90238,-10.34471 -2.25237,-5.1911 -4.4386,-10.41011 -6.57932,-15.64758 -0.8444,-2.24777 -1.59462,-4.51354 -2.13876,-6.84788 -0.75506,-4.55804 -15.81498,4.45697 -11.68381,6.27654 28.70218,-11.05748 13.09069,-7.86869 9.81907,-5.89985 -1.50121,0.90353 -2.94464,1.89902 -4.41694,2.84801 0,0 0.50074,-0.24702 0.50074,-0.24702 v 0 c -4.72541,2.38246 -17.28394,9.1779 5.70971,-3.28022 0.76669,-4.54863 -14.08789,2.86326 -11.55654,6.76257 0.33469,0.55345 0.72735,1.09207 1.03712,1.6569 0.81725,1.48961 1.46407,3.07767 2.30736,4.55462 2.35946,5.12481 4.66849,10.28302 6.50507,15.62098 1.0733,2.97724 2.34456,6.33909 3.02066,9.43082 0.0769,0.35 0.1045,0.70901 0.15682,1.06356 -0.0181,0.25248 0.008,0.51298 -0.0548,0.75737 -0.0357,0.13284 -0.36351,0.39855 -0.24148,0.3345 13.17825,-6.92106 15.33647,-4.99634 10.39181,-6.45879 -2.05317,-0.45406 -4.17186,-0.7544 -6.26174,-0.35674 -5.60351,1.65312 -1.62916,0.37468 -13.20562,7.1076 -1.90893,1.11009 -3.2314,2.96734 -4.36523,4.7942 -0.31189,0.54595 -0.65768,1.0738 -0.93572,1.63745 -1.3637,2.76432 -1.99503,5.86033 -1.9191,8.92595 0.0788,0.58644 0.1088,1.18138 0.23604,1.75928 0.59725,2.71036 2.25954,5.01961 3.86487,7.22211 1.71191,1.93534 3.45284,3.34234 6.0202,3.96499 5.6986,1.41576 12.27053,-3.60878 14.75622,-8.75576 1.65603,-2.89182 2.69341,-6.08152 3.91151,-9.16997 1.58852,-4.35556 3.17457,-8.71465 4.91575,-13.0119 1.87286,-4.94027 4.24914,-9.68003 6.50621,-14.45573 1.15386,-2.37002 1.16719,-2.4456 2.38456,-4.75684 1.11253,-2.1121 2.36817,-4.18343 3.07694,-6.47658 0,0 -9.80635,4.45593 -9.80635,4.45593 z" />
    <path
       style="fill:#930000;fill-opacity:1;stroke:none;stroke-width:2.92031;stroke-miterlimit:4;stroke-dasharray:none;stroke-opacity:1"
       id="path6250"
       d="m 37.786646,101.49367 c 0.17487,0.3474 0.25881,0.75757 0.52461,1.04243 0.58796,0.62999 4.46386,3.18542 4.5352,3.23195 4.81796,3.14637 9.81557,6.00798 14.78445,8.90833 3.92315,2.23102 9.99581,5.74704 13.95088,7.72594 3.30167,1.6516 6.66136,3.18728 10.02258,4.71589 4.25976,1.93728 8.49523,3.93704 12.83879,5.68088 12.728124,5.10873 21.941404,7.89204 35.087804,12.21623 30.41968,6.32956 15.32742,3.03628 45.279,9.8698 0,0 0.44101,-0.3039 0.44101,-0.3039 v 0 c -29.10968,-6.63898 -15.14486,-2.53046 -41.96335,-12.0919 -5.92291,-2.18353 -11.88941,-4.25356 -17.76872,-6.55038 -7.65821,-2.99148 -20.739844,-8.53857 -28.470284,-12.37629 -3.18627,-1.58143 -6.24919,-3.39771 -9.36192,-5.11811 -7.7686,-4.29337 -6.36616,-3.53465 -13.64987,-7.87661 -5.26691,-3.42042 -5.26828,-3.35691 -10.19728,-6.79141 -1.68905,-1.17675 -4.76251,-3.42196 -6.58619,-4.65321 -0.58364,-0.39388 -1.14226,-0.84069 -1.78389,-1.13186 -0.5023,-0.22835 -1.07016,-0.27178 -1.60522,-0.40774 0,0 -6.0776,3.90996 -6.0776,3.90996 z" />
  </g>
</svg>
